<svg xmlns:dc="http://purl.org/dc/elements/1.1/" 
     xmlns:cc="http://creativecommons.org/ns#" 
     xmlns:rdf="http://www.w3.org/1999/02/22-rdf-syntax-ns#"
     xmlns:svg="http://www.w3.org/2000/svg" 
     xmlns="http://www.w3.org/2000/svg" 
     xmlns:xlink="http://www.w3.org/1999/xlink" 
     xmlns:sodipodi="http://sodipodi.sourceforge.net/DTD/sodipodi-0.dtd"
     xmlns:inkscape="http://www.inkscape.org/namespaces/inkscape" 
     version="1.1" 
     width="130" 
     height="26" 
     id="logo"
     viewBox="0 0 418 83">
    <path d="M 11.687613,62.341771 -0.12477411,41.746651 11.738692,21.123326 23.602159,0.5 47.558253,0.23277251 71.514347,-0.03445498 83.330993,20.480199 c 6.499156,11.28306 11.670928,21.088927 11.492827,21.790816 -0.178101,0.70189 -5.436634,10.153048 -11.685628,21.002574 L 71.776384,83 47.638192,82.968446 23.5,82.936892 11.687613,62.341771 Z M 77.407569,59.428096 C 82.683406,50.313549 87,42.357271 87,41.747479 87,41.137687 82.665346,33.070044 77.367435,23.819383 L 67.734871,7 47.617435,7.026185 27.5,7.0523699 20,20.249351 C 15.875,27.50769 11.441804,35.316398 10.148453,37.602036 L 7.7969069,41.75774 17.648453,58.86344 27.5,75.969139 47.657569,75.98457 67.815137,76 77.407569,59.428096 Z M 39.5,59.597485 C 34.492852,57.387278 32.615385,54.497293 32.615385,49 c 0,-8.11337 4.569822,-11.445608 17.321818,-12.630781 7.629803,-0.709116 8.385352,-1.514364 5.159168,-5.498533 -1.521646,-1.879154 -2.876103,-2.352869 -6.75,-2.360784 C 45.680867,28.504456 41.8125,28.857891 39.75,29.295313 36.089253,30.071697 36,30.020921 36,27.161944 c 0,-3.539478 1.605331,-4.128822 11.29966,-4.148289 7.358624,-0.01478 11.570438,1.535097 14.139636,5.20314 C 62.682636,29.991912 63,33.449966 63,45.222506 L 63,60 60,60 c -2.08877,0 -3,-0.488112 -3,-1.606989 0,-1.146484 -0.501487,-1.394344 -1.75,-0.86494 -8.890667,3.76989 -11.207883,4.074352 -15.75,2.069414 z M 52.75,53.02693 C 56.934092,51.127701 57,51.019487 57,46.048892 L 57,41 53.25,41.0056 c -4.898715,0.0073 -10.789275,1.676555 -12.716259,3.603539 -2.299472,2.299472 -1.93317,6.997705 0.688765,8.83418 2.93725,2.05733 6.349334,1.934087 11.527494,-0.416366 z m 83.81743,7.026725 c -3.97463,-2.620089 -5.48985,-5.679234 -5.53199,-11.168796 -0.0644,-8.388041 5.68942,-12.379923 19.53063,-13.549934 C 156.91108,34.798575 158,34.435063 158,32.853264 c 0,-2.732496 -3.39357,-5.648872 -7.46112,-6.411948 -3.07603,-0.577067 -8.00172,0.146118 -14.78888,2.17129 -1.43426,0.427958 -1.75,-0.113293 -1.75,-2.999905 0,-3.261898 0.27701,-3.580825 3.75,-4.317388 6.75013,-1.431591 17.50206,-0.850204 20.8499,1.127412 5.46966,3.231006 5.86965,4.663232 6.23556,22.327275 l 0.33662,16.25 -3.58604,0 C 159.06512,61 158,60.554474 158,59.5 c 0,-1.884321 0.0822,-1.891967 -5.1408,0.478038 -5.64002,2.559226 -12.47606,2.590955 -16.29177,0.07562 z M 153.03811,53.75 c 4.42959,-2.233713 4.46406,-2.291624 4.76179,-8 0.16495,-3.1625 -0.0601,-5.741086 -0.5,-5.730191 -0.43994,0.01089 -3.93342,0.472662 -7.76329,1.026151 -7.82627,1.131047 -11.54629,3.674822 -11.5213,7.878354 0.0401,6.748951 6.86277,8.940549 15.0228,4.825686 z m 61.41231,6.89759 c -7.22173,-3.273909 -11.02934,-11.667052 -10.17465,-22.428086 1.14889,-14.465313 13.84458,-22.212392 26.42264,-16.123455 6.66577,3.226843 9.78631,9.283347 9.73591,18.895949 -0.046,8.763314 -2.43321,14.4469 -7.61914,18.139604 -3.9634,2.822192 -13.70892,3.626672 -18.36476,1.515988 z m 13.40455,-6.072594 c 7.39917,-3.826257 8.05621,-20.106169 1.04942,-26.001995 -4.80859,-4.046163 -12.06566,-3.028206 -15.47182,2.170252 -2.14732,3.277226 -2.9109,11.801741 -1.51857,16.953129 1.98605,7.348026 9.0984,10.417045 15.94097,6.878614 z m 94.24143,6.160262 c -1.32198,-0.679392 -3.34698,-2.504533 -4.5,-4.055869 -1.89048,-2.543553 -2.12941,-4.434404 -2.43244,-19.25 L 314.82792,21 l 3.58604,0 3.58604,0 0,14.04966 c 0,15.583039 0.99628,19.230621 5.56578,20.377493 2.80599,0.704259 8.47601,-0.781994 12.18422,-3.193788 C 341.91702,50.823951 342,50.221014 342,35.88499 L 342,21 l 3.5,0 3.5,0 0,20 0,20 -3.5,0 c -2.85742,0 -3.5,-0.37493 -3.5,-2.042154 0,-1.979362 -0.13338,-1.963988 -4.33786,0.5 -4.80167,2.813969 -11.50538,3.364113 -15.56574,1.277412 z M 178,41 l 0,-20 3,0 c 2.53333,0 3,0.388889 3,2.5 0,1.375 0.20119,2.5 0.44709,2.5 0.24589,0 2.6021,-1.145833 5.236,-2.546295 3.13524,-1.667021 6.00236,-2.44398 8.30292,-2.25 3.22613,0.272023 3.53823,0.583013 3.80987,3.796295 l 0.29588,3.5 -4.79588,-0.278659 c -3.55451,-0.20653 -5.83124,0.318989 -8.79588,2.030286 l -4,2.308945 -0.27746,14.219714 L 183.94509,61 180.97254,61 178,61 178,41 Z m 72,0 0,-20 3,0 c 2.33333,0 3,0.444444 3,2 0,1.1 0.1125,1.998117 0.25,1.995815 0.1375,-0.0023 2.46377,-1.127302 5.16948,-2.5 6.17005,-3.13027 11.23961,-3.198538 15.68264,-0.211187 4.86091,3.268321 5.77661,7.02514 5.84144,23.965372 L 283,61 l -3.5,0 -3.5,0 0,-14.065741 c 0,-17.881184 -0.86755,-19.890074 -8.60212,-19.918946 -2.63788,-0.0098 -5.31497,0.80146 -7.5,2.272917 L 256.5,31.57646 256.22327,46.28823 255.94653,61 252.97327,61 250,61 250,41 Z m 46,0 0,-20 3,0 3,0 0,20 0,20 -3,0 -3,0 0,-20 z m 64,0 0,-20 3.5,0 c 2.81669,0 3.5,0.384972 3.5,1.971865 0,1.890786 0.19116,1.870227 4.64894,-0.5 C 374.20586,21.112339 377.8282,20 379.6986,20 c 3.87902,0 8.77331,2.233931 10.10406,4.611865 0.79714,1.424399 1.38243,1.294023 5.0314,-1.120752 5.16777,-3.419866 11.45418,-4.233172 16.48209,-2.132376 C 417.09042,23.771378 418,27.052316 418,45.467881 L 418,61 l -2.85474,0 -2.85473,0 -0.53336,-15.047599 c -0.4425,-12.484471 -0.83431,-15.380162 -2.30025,-17 -2.50218,-2.76488 -9.19553,-2.616586 -13.43233,0.297599 l -3.27117,2.25 0.16924,14.75 L 393.0919,61 389.54595,61 386,61 386,47.649223 c 0,-15.033766 -0.9926,-19.358277 -4.65421,-20.277284 -3.3613,-0.843632 -8.65951,0.132288 -11.76502,2.167092 L 367,31.23002 367,46.11501 367,61 l -3.5,0 -3.5,0 0,-20 z M 295,11.5 c 0,-3.4166667 0.0952,-3.5 4,-3.5 3.90476,0 4,0.083333 4,3.5 0,3.416667 -0.0952,3.5 -4,3.5 -3.90476,0 -4,-0.08333 -4,-3.5 z"
      inkscape:connector-curvature="0" />
  </svg>